<?xml version="1.0" encoding="utf-8"?>
<!--Generator: Adobe Illustrator 24.1.2, SVG Export Plug-In . SVG Version: 6.00 Build 0)-->
<svg version="1.1" xmlns="http://www.w3.org/2000/svg" xmlns:xlink="http://www.w3.org/1999/xlink" x="0px" y="0px" viewBox="0 0 500 500" style="enable-background:new 0 0 500 500;" xml:space="preserve">
  <g>
    <path d="M270.4 420.4l-1.1-87.9c-6.4 1.6-12.9 2.4-19.5 2.4-7.5 0-14.6-.8-21.4-2.6v54.6L63 250.2 199.7 146V100.4L.2 250.3 233.3 448l37.1-27.6Z"/>
    <path d="M332.4 326.4v22.7L310 342.5l-9.6 7.2V400l199-149.8L272.8 50 228.5 81.2v91.3c6.7-1.7 13.9-2.6 21.4-2.6 6.1 0 12 .6 17.7 1.8l-.8-71.4L437.1 250.2 332.4 326.4Z"/>
    <g>
      <path d="M202.4 205c13.1-13.1 29-19.7 47.5-19.7s34.4 6.6 47.5 19.7c13.1 13.1 19.7 29 19.7 47.5v78.8l-37.3-18.6c-9.7 4.6-19.7 7-29.9 7-18.6 0-34.4-6.6-47.5-19.7-13.1-13.1-19.7-29-19.7-47.5s6.6-34.3 19.7-47.5zm68.7 26.4c-5.8-5.8-12.9-8.7-21.2-8.7s-15.4 2.9-21.2 8.7c-5.8 5.8-8.7 12.9-8.7 21.2s2.9 15.4 8.7 21.2c5.8 5.8 12.9 8.7 21.2 8.7s15.4-2.9 21.2-8.7 8.7-12.9 8.7-21.2c.1-8.3-2.9-15.4-8.7-21.2z"/>
    </g>
  </g>
</svg>
